<svg viewBox="0 0 61 16" xmlns="http://www.w3.org/2000/svg" xmlns:xlink="http://www.w3.org/1999/xlink" width="61.000000" height="16.000000" fill="none">
	<rect id="Frame" width="61.000000" height="16.000000" x="0.000000" y="0.000000" />
	<path id="Vector" d="M0 15.8273L7.53774 15.8273L7.53774 15.0068L5.66943 14.4454L5.66943 9.75982L6.31368 9.93255C7.12971 10.1701 7.9243 10.278 8.67592 10.278C11.5536 10.278 13.7011 8.57222 13.7011 5.61405C13.7011 2.6343 11.3174 0.97168 7.34447 0.97168L0 0.97168L0 1.79219L1.76096 2.35359L1.76096 14.4454L0 15.0068L0 15.8273ZM5.66943 2.33201L7.02236 2.33201C9.14841 2.33201 9.70676 2.89341 9.70676 5.61405C9.70676 8.05402 9.36317 8.83135 7.51626 8.83135C7.3015 8.83135 7.04384 8.83135 6.78612 8.80975L5.66943 8.72335L5.66943 2.33201Z" fill="rgb(255,255,255)" fill-rule="nonzero" />
	<path id="Vector" d="M16.5095 16.0001C17.9913 16.0001 19.2368 14.8989 19.8596 13.8192C19.8596 15.1795 20.7401 15.9569 22.1575 15.9569C23.2097 15.9569 23.8969 15.5682 24.4553 15.2443L24.4553 14.3807C23.2742 14.2727 23.0809 14.1863 23.0809 13.5385L23.0809 9.91101C23.0809 6.13233 21.5132 5.00952 18.6355 5.00952C16.7242 5.00952 14.1258 5.80844 14.1258 7.77334C14.1258 8.74501 14.7486 9.43594 15.672 9.43594C16.5095 9.43594 17.1323 8.85301 17.1323 8.09727C17.1323 7.42787 16.7887 6.80167 15.9511 6.62895L15.9511 6.58577C16.2518 6.4994 16.7672 6.41303 17.4759 6.41303C19.065 6.41303 19.8596 6.78007 19.8596 8.31314L19.8596 9.91101L18.0342 10.2349C15.1136 10.7315 13.8036 11.6384 13.8036 13.5169C13.8036 15.0284 14.9633 16.0001 16.5095 16.0001ZM18.0557 14.0999C17.4115 14.0999 17.0249 13.7977 17.0249 12.9555C17.0249 12.0271 17.3685 11.5736 18.4852 11.1633L19.8596 10.6667L19.8596 13.0851C19.3657 13.7329 18.7644 14.0999 18.0557 14.0999Z" fill="rgb(255,255,255)" fill-rule="nonzero" />
	<path id="Vector" d="M31.5392 15.8273L37.1013 15.8273L37.1013 14.6397L36.1778 14.6397L32.57 9.04727L35.1685 6.54251L36.5429 6.54251L36.5429 5.35493L31.5177 5.35493L31.5177 6.54251L32.8921 6.54251L29.3273 10.9474L29.3273 0L28.5757 0L24.4525 1.61943L24.4525 2.09447L26.106 3.02294L26.106 14.6397L24.7101 14.6397L24.7101 15.8273L30.2722 15.8273L30.2722 14.6397L29.3273 14.6397L29.3273 12.1781L30.444 11.0985L32.5485 14.6397L31.5392 14.6397L31.5392 15.8273Z" fill="rgb(255,255,255)" fill-rule="nonzero" />
	<path id="Vector" d="M44.3362 15.8273L49.8982 15.8273L49.8982 14.6397L48.9748 14.6397L45.367 9.04727L47.9654 6.54251L49.3399 6.54251L49.3399 5.35493L44.3147 5.35493L44.3147 6.54251L45.6891 6.54251L42.1242 10.9474L42.1242 0L41.3726 0L37.2494 1.61943L37.2494 2.09447L38.903 3.02294L38.903 14.6397L37.5071 14.6397L37.5071 15.8273L43.0691 15.8273L43.0691 14.6397L42.1242 14.6397L42.1242 12.1781L43.2409 11.0985L45.3455 14.6397L44.3362 14.6397L44.3362 15.8273Z" fill="rgb(255,255,255)" fill-rule="nonzero" />
	<path id="Vector" d="M55.2804 16.0001C58.5876 16.0001 60.9284 13.2794 60.9284 10.494C60.9284 7.70861 58.5876 5.00952 55.2804 5.00952C51.9733 5.00952 49.6324 7.70861 49.6324 10.494C49.6324 13.2794 51.9733 16.0001 55.2804 16.0001ZM55.2804 14.7909C53.9919 14.7909 53.2188 14.0783 53.2188 10.494C53.2188 6.88807 54.0134 6.2187 55.2804 6.2187C56.5475 6.2187 57.342 6.86648 57.342 10.494C57.342 14.0783 56.5689 14.7909 55.2804 14.7909Z" fill="rgb(255,255,255)" fill-rule="nonzero" />
</svg>
