<svg viewBox="0 0 395 250" xmlns="http://www.w3.org/2000/svg" xmlns:xlink="http://www.w3.org/1999/xlink" width="395.000000" height="250.000000" fill="none" mask="url(#mask_0)">
	<defs>
		<filter id="pixso_custom_mask_type_alpha">
			<feColorMatrix type="matrix" values="0 0 0 0 1 0 0 0 0 1 0 0 0 0 1 0 0 0 1 0 " />
		</filter>
	</defs>
	<mask id="mask_0" width="392.401306" height="247.500000" x="1.299316" y="1.250000" maskUnits="userSpaceOnUse">
		<g filter="url(#pixso_custom_mask_type_alpha)">
			<g id="mask0">
				<path id="Vector" d="M1.29932 1.25L393.701 1.25L393.701 248.75L1.29932 248.75L1.29932 1.25Z" fill="rgb(248,247,249)" fill-rule="nonzero" />
				<path id="Vector" d="M393.701 1.25L393.701 248.75L1.29932 248.75L1.29932 1.25L393.701 1.25Z" fill-rule="nonzero" stroke="rgb(177,166,241)" stroke-width="2" />
			</g>
		</g>
	</mask>
	<path id="Frame" d="M387 0C391.418 0 395 3.58172 395 8L395 250L0 250L0 8C0 3.58172 3.58172 0 8 0L387 0Z" fill-rule="evenodd" />
	<g id="Group">
		<path id="Vector" d="M31.3054 740.033L227.387 642.819C233.607 639.588 283.225 615.205 431.938 543.526C580.65 471.848 573.407 368.657 551.197 326.021C538.703 300.781 512.107 247.423 505.674 235.905C499.241 224.389 510.647 213.201 517.154 209.046C584.188 169.581 651.651 113.642 632.264 70.3138C555.188 -101.939 509.764 -205.021 471.999 -259.697C434.235 -314.375 391.171 -296.649 378.969 -292.631C369.208 -289.419 294.709 -248.087 258.68 -227.824L244.608 -253.017C238.173 -264.535 225.37 -261.597 219.771 -258.69C5.7468 -149.06 -429.766 74.0786 -459.623 89.5882C-489.48 105.098 -487.659 122.725 -483.015 129.6C-425.336 234.296 -288.696 480.926 -203.571 629.873C-118.446 778.819 -11.5179 765.374 31.3054 740.033Z" fill="rgb(140,227,195)" fill-rule="nonzero" />
		<path id="Vector" d="M260.456 -365.911C391.572 -426.117 478.463 -339.924 503.238 -294.312C519.754 -340.454 620.5 -399.985 708.034 -373.866C894.661 -318.179 853.773 -144.581 836.856 -108.157C788.821 -4.73672 561.043 306.054 524.708 329.389C488.375 352.725 273.67 87.5461 224.124 -4.73669C174.576 -97.0195 83.7392 -284.766 260.456 -365.911Z" fill="rgb(25,199,135)" fill-rule="nonzero" />
		<path id="Vector" d="M-175.941 362.818C-149.15 431.22 -54.656 448.321 -10.7577 448.321L-10.8259 502.731C-10.8616 531.233 59.0463 507.914 81.9498 461.276C158.526 478.117 502.58 450.911 528.302 300.634C539.838 233.234 513.694 162.016 417.006 107.605C320.319 53.1941 115.185 64.2156 -10.3487 121.855C-182.458 200.881 -209.429 277.315 -175.941 362.818Z" opacity="0" fill="rgb(16,10,48)" fill-rule="nonzero" />
	</g>
</svg>
