<svg viewBox="0 0 395 250" xmlns="http://www.w3.org/2000/svg" xmlns:xlink="http://www.w3.org/1999/xlink" width="395.000000" height="250.000000" fill="none" customFrame="#000000">
	<mask id="mask_0" width="392.401306" height="247.500000" x="1.299347" y="1.250000" maskUnits="userSpaceOnUse">
		<g filter="url(#pixso_custom_mask_type_alpha)">
			<g id="mask0">
				<path id="Vector" d="M1.29935 1.25L393.701 1.25L393.701 248.75L1.29935 248.75L1.29935 1.25Z" fill="rgb(248,247,249)" fill-rule="nonzero" />
				<path id="Vector" d="M393.701 1.25L393.701 248.75L1.29935 248.75L1.29935 1.25L393.701 1.25Z" fill-rule="nonzero" stroke="rgb(177,166,241)" stroke-width="2" />
			</g>
		</g>
	</mask>
	<defs>
		<clipPath id="clipPath_0">
			<rect width="395.000000" height="250.000000" x="0.000000" y="0.000000" fill="rgb(255,255,255)" />
		</clipPath>
		<filter id="pixso_custom_mask_type_alpha">
			<feColorMatrix type="matrix" values="0 0 0 0 1 0 0 0 0 1 0 0 0 0 1 0 0 0 1 0 " />
		</filter>
		<clipPath id="clipPath_1">
			<rect width="82.000000" height="68.000000" x="30.000000" y="158.000000" fill="rgb(255,255,255)" />
		</clipPath>
		<clipPath id="clipPath_2">
			<rect width="61.000000" height="16.000000" x="30.000000" y="158.000000" fill="rgb(255,255,255)" />
		</clipPath>
	</defs>
	<rect id="Frame" width="395.000000" height="250.000000" x="0.000000" y="0.000000" />
	<g id="Frame" clip-path="url(#clipPath_0)" customFrame="url(#clipPath_0)" mask="url(#mask_0)">
		<path id="Frame" d="M387 0C391.418 0 395 3.58172 395 8L395 250L0 250L0 8C0 3.58172 3.58172 0 8 0L387 0Z" fill-rule="evenodd" />
		<g id="Group">
			<path id="Vector" d="M31.3054 740.033L227.387 642.819C233.607 639.588 283.225 615.205 431.938 543.526C580.65 471.848 573.407 368.657 551.197 326.021C538.703 300.781 512.107 247.423 505.674 235.905C499.241 224.389 510.647 213.201 517.154 209.046C584.188 169.581 651.651 113.642 632.264 70.3138C555.188 -101.939 509.764 -205.021 471.999 -259.697C434.235 -314.375 391.171 -296.649 378.969 -292.631C369.208 -289.419 294.709 -248.087 258.68 -227.824L244.608 -253.017C238.173 -264.535 225.37 -261.597 219.771 -258.69C5.7468 -149.06 -429.766 74.0786 -459.623 89.5882C-489.48 105.098 -487.659 122.725 -483.015 129.6C-425.336 234.296 -288.696 480.926 -203.571 629.873C-118.446 778.819 -11.518 765.374 31.3054 740.033Z" fill="rgb(219,218,224)" fill-rule="nonzero" />
			<path id="Vector" d="M260.456 -365.911C391.572 -426.117 478.463 -339.924 503.238 -294.312C519.754 -340.454 620.5 -399.985 708.034 -373.866C894.661 -318.179 853.773 -144.581 836.856 -108.157C788.822 -4.73672 561.043 306.054 524.708 329.389C488.375 352.725 273.67 87.5461 224.124 -4.73669C174.576 -97.0195 83.7392 -284.766 260.456 -365.911Z" fill="rgb(195,193,203)" fill-rule="nonzero" />
			<g id="Group 1">
				<path id="Vector" d="M-175.941 362.818C-149.15 431.22 -54.656 448.321 -10.7577 448.321L-10.8259 502.731C-10.8616 531.233 59.0463 507.914 81.9498 461.276C158.526 478.117 502.58 450.911 528.302 300.634C539.838 233.234 513.694 162.016 417.006 107.605C320.319 53.1941 115.185 64.2156 -10.3487 121.855C-182.458 200.881 -209.429 277.315 -175.941 362.818Z" fill="rgb(16,10,48)" fill-opacity="0" fill-rule="nonzero" />
			</g>
		</g>
	</g>
	<g id="Frame" customFrame="url(#clipPath_1)">
		<rect id="Frame" width="82.000000" height="68.000000" x="30.000000" y="158.000000" />
		<path id="Gratuit" d="M44.0455 195.727L46.2273 195.727C45.5795 192.352 42.75 190.034 39.0682 190.034C34.5938 190.034 31.4318 193.477 31.4318 199C31.4318 204.523 34.5682 207.966 39.2045 207.966C43.3636 207.966 46.3295 205.196 46.3295 200.875L46.3295 199L39.6818 199L39.6818 200.875L44.2841 200.875C44.2244 204.011 42.1619 205.989 39.2045 205.989C35.9659 205.989 33.4773 203.534 33.4773 199C33.4773 194.466 35.9659 192.011 39.0682 192.011C41.5909 192.011 43.304 193.435 44.0455 195.727ZM49.6768 207.727L51.6882 207.727L51.6882 199.443C51.6882 197.67 53.0859 196.375 54.995 196.375C55.532 196.375 56.0859 196.477 56.2223 196.511L56.2223 194.466C55.9922 194.449 55.4638 194.432 55.1655 194.432C53.5973 194.432 52.2337 195.318 51.7564 196.614L51.62 196.614L51.62 194.636L49.6768 194.636L49.6768 207.727ZM62.4588 208.034C64.7429 208.034 65.9361 206.807 66.3452 205.955L66.4474 205.955L66.4474 207.727L68.4588 207.727L68.4588 199.102C68.4588 194.943 65.2884 194.466 63.6179 194.466C61.6406 194.466 59.3906 195.148 58.3679 197.534L60.277 198.216C60.7202 197.261 61.7685 196.239 63.6861 196.239C65.5355 196.239 66.4474 197.219 66.4474 198.898L66.4474 198.966C66.4474 199.938 65.4588 199.852 63.0724 200.159C60.6435 200.474 57.9929 201.011 57.9929 204.011C57.9929 206.568 59.9702 208.034 62.4588 208.034ZM62.7656 206.227C61.1634 206.227 60.0043 205.511 60.0043 204.114C60.0043 202.58 61.402 202.102 62.9702 201.898C63.8224 201.795 66.1065 201.557 66.4474 201.148L66.4474 202.989C66.4474 204.625 65.152 206.227 62.7656 206.227ZM77.8232 194.636L75.0277 194.636L75.0277 191.5L73.0163 191.5L73.0163 194.636L71.0391 194.636L71.0391 196.341L73.0163 196.341L73.0163 204.523C73.0163 206.807 74.8572 207.898 76.5618 207.898C77.3118 207.898 77.7891 207.761 78.0618 207.659L77.6527 205.852C77.4822 205.886 77.2095 205.955 76.7663 205.955C75.88 205.955 75.0277 205.682 75.0277 203.977L75.0277 196.341L77.8232 196.341L77.8232 194.636ZM89.0987 202.375C89.0987 204.83 87.2237 205.955 85.7237 205.955C84.0533 205.955 82.8601 204.727 82.8601 202.818L82.8601 194.636L80.8487 194.636L80.8487 202.955C80.8487 206.295 82.6214 207.898 85.076 207.898C87.0533 207.898 88.3487 206.841 88.9624 205.511L89.0987 205.511L89.0987 207.727L91.1101 207.727L91.1101 194.636L89.0987 194.636L89.0987 202.375ZM94.794 207.727L96.8054 207.727L96.8054 194.636L94.794 194.636L94.794 207.727ZM95.8168 192.455C96.6009 192.455 97.2486 191.841 97.2486 191.091C97.2486 190.341 96.6009 189.727 95.8168 189.727C95.0327 189.727 94.3849 190.341 94.3849 191.091C94.3849 191.841 95.0327 192.455 95.8168 192.455ZM106.183 194.636L103.387 194.636L103.387 191.5L101.376 191.5L101.376 194.636L99.3984 194.636L99.3984 196.341L101.376 196.341L101.376 204.523C101.376 206.807 103.217 207.898 104.921 207.898C105.671 207.898 106.148 207.761 106.421 207.659L106.012 205.852C105.842 205.886 105.569 205.955 105.126 205.955C104.239 205.955 103.387 205.682 103.387 203.977L103.387 196.341L106.183 196.341L106.183 194.636Z" opacity="0" fill="rgb(255,255,255)" fill-rule="nonzero" />
		<g id="Frame" opacity="0" clip-path="url(#clipPath_2)" customFrame="url(#clipPath_2)">
			<rect id="Frame" width="61.000000" height="16.000000" x="30.000000" y="158.000000" opacity="0" />
			<path id="Vector" d="M30 173.827L37.5377 173.827L37.5377 173.007L35.6694 172.445L35.6694 167.76L36.3137 167.933C37.1297 168.17 37.9243 168.278 38.6759 168.278C41.5536 168.278 43.7011 166.572 43.7011 163.614C43.7011 160.634 41.3174 158.972 37.3445 158.972L30 158.972L30 159.792L31.761 160.354L31.761 172.445L30 173.007L30 173.827ZM35.6694 160.332L37.0224 160.332C39.1484 160.332 39.7068 160.893 39.7068 163.614C39.7068 166.054 39.3632 166.831 37.5163 166.831C37.3015 166.831 37.0438 166.831 36.7861 166.81L35.6694 166.723L35.6694 160.332Z" fill="rgb(255,255,255)" fill-rule="nonzero" />
			<path id="Vector" d="M46.5094 174C47.9913 174 49.2368 172.899 49.8596 171.819C49.8596 173.18 50.7401 173.957 52.1575 173.957C53.2097 173.957 53.8969 173.568 54.4553 173.244L54.4553 172.381C53.2742 172.273 53.0809 172.186 53.0809 171.539L53.0809 167.911C53.0809 164.132 51.5132 163.01 48.6355 163.01C46.7242 163.01 44.1257 163.808 44.1257 165.773C44.1257 166.745 44.7485 167.436 45.672 167.436C46.5094 167.436 47.1322 166.853 47.1322 166.097C47.1322 165.428 46.7887 164.802 45.9511 164.629L45.9511 164.586C46.2518 164.499 46.7672 164.413 47.4758 164.413C49.065 164.413 49.8596 164.78 49.8596 166.313L49.8596 167.911L48.0342 168.235C45.1136 168.732 43.8036 169.638 43.8036 171.517C43.8036 173.028 44.9633 174 46.5094 174ZM48.0557 172.1C47.4115 172.1 47.0249 171.798 47.0249 170.956C47.0249 170.027 47.3685 169.574 48.4852 169.163L49.8596 168.667L49.8596 171.085C49.3656 171.733 48.7644 172.1 48.0557 172.1Z" fill="rgb(255,255,255)" fill-rule="nonzero" />
			<path id="Vector" d="M61.5392 173.827L67.1013 173.827L67.1013 172.64L66.1778 172.64L62.57 167.047L65.1685 164.543L66.5429 164.543L66.5429 163.355L61.5177 163.355L61.5177 164.543L62.8921 164.543L59.3273 168.947L59.3273 158L58.5757 158L54.4525 159.619L54.4525 160.094L56.106 161.023L56.106 172.64L54.7101 172.64L54.7101 173.827L60.2722 173.827L60.2722 172.64L59.3273 172.64L59.3273 170.178L60.444 169.099L62.5485 172.64L61.5392 172.64L61.5392 173.827Z" fill="rgb(255,255,255)" fill-rule="nonzero" />
			<path id="Vector" d="M74.3362 173.827L79.8982 173.827L79.8982 172.64L78.9748 172.64L75.367 167.047L77.9654 164.543L79.3399 164.543L79.3399 163.355L74.3147 163.355L74.3147 164.543L75.6891 164.543L72.1242 168.947L72.1242 158L71.3726 158L67.2494 159.619L67.2494 160.094L68.903 161.023L68.903 172.64L67.5071 172.64L67.5071 173.827L73.0691 173.827L73.0691 172.64L72.1242 172.64L72.1242 170.178L73.2409 169.099L75.3455 172.64L74.3362 172.64L74.3362 173.827Z" fill="rgb(255,255,255)" fill-rule="nonzero" />
			<path id="Vector" d="M85.2804 174C88.5876 174 90.9284 171.279 90.9284 168.494C90.9284 165.709 88.5876 163.01 85.2804 163.01C81.9733 163.01 79.6324 165.709 79.6324 168.494C79.6324 171.279 81.9733 174 85.2804 174ZM85.2804 172.791C83.9919 172.791 83.2188 172.078 83.2188 168.494C83.2188 164.888 84.0134 164.219 85.2804 164.219C86.5475 164.219 87.342 164.866 87.342 168.494C87.342 172.078 86.5689 172.791 85.2804 172.791Z" fill="rgb(255,255,255)" fill-rule="nonzero" />
		</g>
	</g>
</svg>
